<?xml version="1.0" encoding="UTF-8" standalone="no"?>
<!DOCTYPE svg PUBLIC "-//W3C//DTD SVG 1.1//EN" "http://www.w3.org/Graphics/SVG/1.1/DTD/svg11.dtd">
<!-- Created with Vectornator (http://vectornator.io/) -->
<svg height="100%" stroke-miterlimit="10" style="fill-rule:nonzero;clip-rule:evenodd;stroke-linecap:round;stroke-linejoin:round;" version="1.1" viewBox="0 0 512 512" width="100%" xml:space="preserve" xmlns="http://www.w3.org/2000/svg" xmlns:vectornator="http://vectornator.io" xmlns:xlink="http://www.w3.org/1999/xlink">
<defs/>
<clipPath id="ArtboardFrame">
<rect height="512" width="512" x="0" y="0"/>
</clipPath>
<g clip-path="url(#ArtboardFrame)" id="Layer-1" vectornator:layerName="Layer 1">
<path d="M34.6987 4.66834L478.228 4.66834C494.418 4.66834 507.542 17.7929 507.542 33.9829L507.542 477.699C507.542 493.889 494.418 507.013 478.228 507.013L34.6987 507.013C18.5087 507.013 5.38415 493.889 5.38415 477.699L5.38415 33.9829C5.38415 17.7929 18.5087 4.66834 34.6987 4.66834Z" fill="#e5d381" fill-rule="evenodd" opacity="1" stroke="#000000" stroke-linecap="round" stroke-linejoin="round" stroke-width="10"/>
<g opacity="1">
<path d="M129.227 86.8081L360.073 86.8081L360.073 413.708L290.999 413.708L290.999 143.071L194.026 143.071L194.251 192.439C194.401 222.238 193.763 248.516 192.338 271.273C190.913 294.03 188.663 313.822 185.588 330.649C182.513 347.476 178.613 361.597 173.888 373.012C169.163 384.428 163.576 393.583 157.126 400.476C150.676 407.37 143.326 412.3 135.077 415.265C126.827 418.23 117.752 419.712 107.852 419.712C99.7521 419.712 92.5897 419.231 86.3648 418.267C80.1399 417.303 73.9525 415.561 67.8026 413.041L67.5776 350.552C69.6775 351.59 71.89 352.442 74.215 353.109C76.5399 353.776 78.8274 354.295 81.0773 354.666C83.3273 355.037 85.3898 355.296 87.2648 355.444C89.1397 355.593 90.6022 355.667 91.6522 355.667C95.7021 355.667 99.4896 355.111 103.015 353.999C106.539 352.887 109.689 350.478 112.464 346.771C115.239 343.065 117.677 337.728 119.777 330.76C121.877 323.792 123.639 314.526 125.064 302.962C126.489 291.399 127.539 277.092 128.214 260.043C128.889 242.994 129.227 222.609 129.227 198.888L129.227 86.8081Z" fill="#000000" fill-rule="evenodd" opacity="1" stroke="none"/>
<path d="M424.256 404.292C421.317 404.292 418.774 404.656 416.626 405.382C412.84 406.722 409.986 409.208 408.064 412.839L386.363 411.833L395.009 344.72L462.742 344.72L462.742 364.997L412.472 364.997L408.064 391.557C411.794 389.155 414.705 387.563 416.796 386.781C420.3 385.496 424.567 384.854 429.596 384.854C439.769 384.854 448.642 388.233 456.215 394.992C463.788 401.751 467.574 411.582 467.574 424.485C467.574 435.712 463.929 445.739 456.638 454.564C449.348 463.39 438.441 467.802 423.917 467.802C412.218 467.802 402.611 464.702 395.094 458.502C387.578 452.302 383.396 443.504 382.548 432.109L406.623 432.109C407.584 437.304 409.421 441.312 412.133 444.133C414.846 446.954 418.802 448.364 424.001 448.364C429.992 448.364 434.555 446.283 437.692 442.122C440.829 437.961 442.397 432.724 442.397 426.412C442.397 420.212 440.927 414.975 437.989 410.702C435.05 406.429 430.472 404.292 424.256 404.292Z" fill="#000000" fill-rule="evenodd" opacity="1" stroke="none"/>
</g>
</g>
</svg>
